<?xml version="1.0" encoding="UTF-8" standalone="no"?>
<!DOCTYPE svg PUBLIC "-//W3C//DTD SVG 1.1//EN" "http://www.w3.org/Graphics/SVG/1.1/DTD/svg11.dtd">
<svg xmlns="http://www.w3.org/2000/svg" version="1.1" viewBox="0.00 0.00 98.00 100.00">
<g stroke-width="2.00" fill="none" stroke-linecap="butt">
<path stroke="#b2d2a1" vector-effect="non-scaling-stroke" d="
  M 71.42 17.60
  C 66.85 9.86 58.30 11.89 52.24 16.21
  C 42.40 23.21 29.75 29.88 29.24 43.84
  C 28.60 61.38 47.54 66.20 59.30 56.82
  C 68.75 49.29 72.06 36.60 72.77 24.95
  Q 73.05 20.36 71.42 17.60"
/>
<path stroke="#b2d2a1" vector-effect="non-scaling-stroke" d="
  M 82.50 65.43
  Q 82.98 64.85 83.79 64.85
  A 0.66 0.66 0.0 0 0 83.91 63.54
  Q 82.50 63.28 81.34 63.99
  A 0.96 0.91 81.7 0 0 80.93 64.57
  L 80.30 67.51
  A 0.46 0.46 0.0 0 0 80.74 68.06
  L 84.07 68.09
  A 0.63 0.63 0.0 0 0 84.27 66.86
  L 82.76 66.35
  A 0.58 0.58 0.0 0 1 82.50 65.43"
/>
<path stroke="#e1e7b0" vector-effect="non-scaling-stroke" d="
  M 39.59 83.45
  L 39.48 70.37
  Q 39.48 69.76 38.87 69.75
  L 37.07 69.73
  Q 36.56 69.72 36.55 70.23
  Q 36.44 76.49 36.52 82.75
  Q 36.56 86.30 40.25 86.46
  C 42.98 86.57 47.65 87.11 49.39 84.84
  C 51.54 82.03 49.06 79.34 46.89 77.53
  Q 46.48 77.18 46.76 76.72
  L 49.72 71.83
  Q 50.09 71.21 49.52 70.77
  L 48.66 70.11
  Q 47.97 69.58 47.52 70.32
  L 43.14 77.58
  A 0.53 0.53 0.0 0 0 43.27 78.28
  L 47.05 81.26
  A 1.54 1.53 63.9 0 1 46.11 84.00
  L 40.19 84.04
  Q 39.60 84.04 39.59 83.45"
/>
<path stroke="#b2d2a1" vector-effect="non-scaling-stroke" d="
  M 83.7739 70.2326
  A 0.47 0.47 0.0 0 0 83.3047 69.7618
  L 81.2247 69.7582
  A 0.47 0.47 0.0 0 0 80.7539 70.2274
  L 80.7261 86.1074
  A 0.47 0.47 0.0 0 0 81.1953 86.5782
  L 83.2753 86.5818
  A 0.47 0.47 0.0 0 0 83.7461 86.1126
  L 83.7739 70.2326"
/>
<path stroke="#b2d2a1" vector-effect="non-scaling-stroke" d="
  M 74.73 72.64
  A 1.50 1.50 0.0 0 0 73.23 71.14
  A 1.50 1.50 0.0 0 0 71.73 72.64
  A 1.50 1.50 0.0 0 0 73.23 74.14
  A 1.50 1.50 0.0 0 0 74.73 72.64"
/>
<path stroke="#e1e7b0" vector-effect="non-scaling-stroke" d="
  M 29.56 83.95
  L 24.90 83.98
  Q 24.37 83.99 24.34 84.52
  L 24.28 85.88
  Q 24.25 86.43 24.79 86.46
  Q 29.04 86.69 30.25 86.44
  C 37.02 85.01 33.28 78.32 29.72 75.76
  Q 29.26 75.43 28.84 75.80
  L 27.51 76.97
  A 0.57 0.57 0.0 0 0 27.56 77.86
  Q 29.72 79.42 30.88 81.81
  A 1.49 1.48 76.7 0 1 29.56 83.95"
/>
<path stroke="#e1e7b0" vector-effect="non-scaling-stroke" d="
  M 18.97 87.46
  L 14.03 89.43
  A 0.42 0.41 -7.4 0 0 13.77 89.76
  Q 13.70 90.38 13.77 90.99
  Q 13.83 91.54 14.39 91.51
  Q 22.97 90.96 22.73 83.10
  C 22.60 78.76 20.32 74.81 15.32 77.09
  C 9.87 79.58 12.12 87.49 18.71 86.50
  A 0.50 0.50 0.0 0 1 18.97 87.46"
/>
<path stroke="#b2d2a1" vector-effect="non-scaling-stroke" d="
  M 59.22 87.22
  Q 57.19 88.85 54.56 89.17
  A 0.62 0.62 0.0 0 0 54.01 89.85
  L 54.12 90.92
  Q 54.19 91.57 54.84 91.52
  Q 59.89 91.07 62.61 86.99
  Q 62.92 86.53 63.47 86.53
  L 77.45 86.52
  Q 77.87 86.52 77.91 86.11
  C 78.23 83.05 78.57 78.87 75.69 77.01
  C 71.85 74.53 66.88 78.59 68.21 83.42
  A 0.47 0.47 0.0 0 1 67.76 84.01
  L 63.49 84.05
  Q 62.86 84.05 62.92 83.43
  C 64.08 70.93 47.00 77.92 54.27 85.48
  Q 55.42 86.68 58.93 86.48
  A 0.42 0.42 0.0 0 1 59.22 87.22"
/>
<path stroke="#a5c550" vector-effect="non-scaling-stroke" d="
  M 33.38 50.12
  C 37.89 60.59 50.04 61.21 58.41 54.92
  C 67.11 48.37 69.81 36.80 70.77 26.50
  C 70.97 24.37 70.99 21.98 69.53 20.11
  C 62.24 10.79 55.53 16.18 47.90 21.48
  Q 43.34 24.65 40.06 27.30
  Q 33.88 32.28 32.16 40.30
  Q 31.15 44.96 33.38 50.12"
/>
<path stroke="#dde56b" vector-effect="non-scaling-stroke" d="
  M 66.12 40.12
  Q 68.46 32.04 68.58 28.20
  Q 68.84 19.68 61.23 17.90
  C 56.88 16.88 49.97 22.68 45.75 25.75
  Q 39.93 29.99 36.70 35.07
  Q 34.16 39.09 34.36 43.46
  C 34.91 54.94 46.64 59.40 55.84 53.63
  C 59.84 51.13 64.74 44.92 66.12 40.12"
/>
<path stroke="#9f8b47" vector-effect="non-scaling-stroke" d="
  M 51.47 29.88
  C 43.02 31.77 32.69 43.74 43.86 50.63"
/>
<path stroke="#ae944b" vector-effect="non-scaling-stroke" d="
  M 43.86 50.63
  Q 46.38 52.20 49.26 51.70
  C 57.97 50.18 63.95 38.47 57.44 31.60
  Q 55.31 29.35 51.47 29.88"
/>
<path stroke="#773c1a" vector-effect="non-scaling-stroke" d="
  M 43.86 50.63
  Q 44.40 50.35 44.62 49.91
  Q 44.83 49.46 44.53 49.07
  C 39.37 42.20 44.46 33.57 51.84 31.38
  Q 52.34 31.23 52.21 30.73
  Q 52.07 30.17 51.47 29.88"
/>
<path stroke="#c3a28f" vector-effect="non-scaling-stroke" d="
  M 57.59 35.23
  Q 58.27 41.06 54.43 45.52
  A 0.33 0.32 -35.6 0 0 54.37 45.85
  L 54.58 46.42
  A 0.55 0.55 0.0 0 0 55.51 46.60
  C 57.70 44.17 59.97 38.07 57.84 35.13
  Q 57.53 34.69 57.59 35.23"
/>
<path stroke="#e1e7b0" vector-effect="non-scaling-stroke" d="
  M 18.05 79.28
  C 15.52 78.11 14.12 82.15 16.29 83.69
  Q 17.66 84.66 18.83 83.84
  Q 19.94 83.05 19.61 81.73
  Q 19.12 79.77 18.05 79.28"
/>
<path stroke="#b2d2a1" vector-effect="non-scaling-stroke" d="
  M 58.22 83.96
  A 1.72 1.71 -89.7 0 0 59.96 82.23
  Q 59.94 80.59 58.90 79.56
  A 2.01 2.00 -60.7 0 0 55.54 80.51
  Q 54.71 83.90 58.22 83.96"
/>
<path stroke="#b2d2a1" vector-effect="non-scaling-stroke" d="
  M 70.73 82.10
  A 1.42 1.42 0.0 0 0 71.65 83.50
  L 73.15 84.06
  A 1.42 1.42 0.0 0 0 75.05 82.51
  L 74.67 80.17
  A 1.42 1.42 0.0 0 0 72.89 79.02
  L 71.84 79.32
  A 1.42 1.42 0.0 0 0 70.80 80.62
  L 70.73 82.10"
/>
</g>
<path fill="#ffffff" d="
  M 0.00 0.00
  L 98.00 0.00
  L 98.00 100.00
  L 0.00 100.00
  L 0.00 0.00
  Z
  M 71.42 17.60
  C 66.85 9.86 58.30 11.89 52.24 16.21
  C 42.40 23.21 29.75 29.88 29.24 43.84
  C 28.60 61.38 47.54 66.20 59.30 56.82
  C 68.75 49.29 72.06 36.60 72.77 24.95
  Q 73.05 20.36 71.42 17.60
  Z
  M 82.50 65.43
  Q 82.98 64.85 83.79 64.85
  A 0.66 0.66 0.0 0 0 83.91 63.54
  Q 82.50 63.28 81.34 63.99
  A 0.96 0.91 81.7 0 0 80.93 64.57
  L 80.30 67.51
  A 0.46 0.46 0.0 0 0 80.74 68.06
  L 84.07 68.09
  A 0.63 0.63 0.0 0 0 84.27 66.86
  L 82.76 66.35
  A 0.58 0.58 0.0 0 1 82.50 65.43
  Z
  M 39.59 83.45
  L 39.48 70.37
  Q 39.48 69.76 38.87 69.75
  L 37.07 69.73
  Q 36.56 69.72 36.55 70.23
  Q 36.44 76.49 36.52 82.75
  Q 36.56 86.30 40.25 86.46
  C 42.98 86.57 47.65 87.11 49.39 84.84
  C 51.54 82.03 49.06 79.34 46.89 77.53
  Q 46.48 77.18 46.76 76.72
  L 49.72 71.83
  Q 50.09 71.21 49.52 70.77
  L 48.66 70.11
  Q 47.97 69.58 47.52 70.32
  L 43.14 77.58
  A 0.53 0.53 0.0 0 0 43.27 78.28
  L 47.05 81.26
  A 1.54 1.53 63.9 0 1 46.11 84.00
  L 40.19 84.04
  Q 39.60 84.04 39.59 83.45
  Z
  M 83.7739 70.2326
  A 0.47 0.47 0.0 0 0 83.3047 69.7618
  L 81.2247 69.7582
  A 0.47 0.47 0.0 0 0 80.7539 70.2274
  L 80.7261 86.1074
  A 0.47 0.47 0.0 0 0 81.1953 86.5782
  L 83.2753 86.5818
  A 0.47 0.47 0.0 0 0 83.7461 86.1126
  L 83.7739 70.2326
  Z
  M 74.73 72.64
  A 1.50 1.50 0.0 0 0 73.23 71.14
  A 1.50 1.50 0.0 0 0 71.73 72.64
  A 1.50 1.50 0.0 0 0 73.23 74.14
  A 1.50 1.50 0.0 0 0 74.73 72.64
  Z
  M 29.56 83.95
  L 24.90 83.98
  Q 24.37 83.99 24.34 84.52
  L 24.28 85.88
  Q 24.25 86.43 24.79 86.46
  Q 29.04 86.69 30.25 86.44
  C 37.02 85.01 33.28 78.32 29.72 75.76
  Q 29.26 75.43 28.84 75.80
  L 27.51 76.97
  A 0.57 0.57 0.0 0 0 27.56 77.86
  Q 29.72 79.42 30.88 81.81
  A 1.49 1.48 76.7 0 1 29.56 83.95
  Z
  M 18.97 87.46
  L 14.03 89.43
  A 0.42 0.41 -7.4 0 0 13.77 89.76
  Q 13.70 90.38 13.77 90.99
  Q 13.83 91.54 14.39 91.51
  Q 22.97 90.96 22.73 83.10
  C 22.60 78.76 20.32 74.81 15.32 77.09
  C 9.87 79.58 12.12 87.49 18.71 86.50
  A 0.50 0.50 0.0 0 1 18.97 87.46
  Z
  M 59.22 87.22
  Q 57.19 88.85 54.56 89.17
  A 0.62 0.62 0.0 0 0 54.01 89.85
  L 54.12 90.92
  Q 54.19 91.57 54.84 91.52
  Q 59.89 91.07 62.61 86.99
  Q 62.92 86.53 63.47 86.53
  L 77.45 86.52
  Q 77.87 86.52 77.91 86.11
  C 78.23 83.05 78.57 78.87 75.69 77.01
  C 71.85 74.53 66.88 78.59 68.21 83.42
  A 0.47 0.47 0.0 0 1 67.76 84.01
  L 63.49 84.05
  Q 62.86 84.05 62.92 83.43
  C 64.08 70.93 47.00 77.92 54.27 85.48
  Q 55.42 86.68 58.93 86.48
  A 0.42 0.42 0.0 0 1 59.22 87.22
  Z"
/>
<path fill="#65a442" d="
  M 72.77 24.95
  C 72.06 36.60 68.75 49.29 59.30 56.82
  C 47.54 66.20 28.60 61.38 29.24 43.84
  C 29.75 29.88 42.40 23.21 52.24 16.21
  C 58.30 11.89 66.85 9.86 71.42 17.60
  Q 73.05 20.36 72.77 24.95
  Z
  M 33.38 50.12
  C 37.89 60.59 50.04 61.21 58.41 54.92
  C 67.11 48.37 69.81 36.80 70.77 26.50
  C 70.97 24.37 70.99 21.98 69.53 20.11
  C 62.24 10.79 55.53 16.18 47.90 21.48
  Q 43.34 24.65 40.06 27.30
  Q 33.88 32.28 32.16 40.30
  Q 31.15 44.96 33.38 50.12
  Z"
/>
<path fill="#e4e65e" d="
  M 33.38 50.12
  Q 31.15 44.96 32.16 40.30
  Q 33.88 32.28 40.06 27.30
  Q 43.34 24.65 47.90 21.48
  C 55.53 16.18 62.24 10.79 69.53 20.11
  C 70.99 21.98 70.97 24.37 70.77 26.50
  C 69.81 36.80 67.11 48.37 58.41 54.92
  C 50.04 61.21 37.89 60.59 33.38 50.12
  Z
  M 66.12 40.12
  Q 68.46 32.04 68.58 28.20
  Q 68.84 19.68 61.23 17.90
  C 56.88 16.88 49.97 22.68 45.75 25.75
  Q 39.93 29.99 36.70 35.07
  Q 34.16 39.09 34.36 43.46
  C 34.91 54.94 46.64 59.40 55.84 53.63
  C 59.84 51.13 64.74 44.92 66.12 40.12
  Z"
/>
<path fill="#d6e378" d="
  M 66.12 40.12
  C 64.74 44.92 59.84 51.13 55.84 53.63
  C 46.64 59.40 34.91 54.94 34.36 43.46
  Q 34.16 39.09 36.70 35.07
  Q 39.93 29.99 45.75 25.75
  C 49.97 22.68 56.88 16.88 61.23 17.90
  Q 68.84 19.68 68.58 28.20
  Q 68.46 32.04 66.12 40.12
  Z
  M 51.47 29.88
  C 43.02 31.77 32.69 43.74 43.86 50.63
  Q 46.38 52.20 49.26 51.70
  C 57.97 50.18 63.95 38.47 57.44 31.60
  Q 55.31 29.35 51.47 29.88
  Z"
/>
<path fill="#86451e" d="
  M 43.86 50.63
  Q 44.40 50.35 44.62 49.91
  Q 44.83 49.46 44.53 49.07
  C 39.37 42.20 44.46 33.57 51.84 31.38
  Q 52.34 31.23 52.21 30.73
  Q 52.07 30.17 51.47 29.88
  Q 55.31 29.35 57.44 31.60
  C 63.95 38.47 57.97 50.18 49.26 51.70
  Q 46.38 52.20 43.86 50.63
  Z
  M 57.59 35.23
  Q 58.27 41.06 54.43 45.52
  A 0.33 0.32 -35.6 0 0 54.37 45.85
  L 54.58 46.42
  A 0.55 0.55 0.0 0 0 55.51 46.60
  C 57.70 44.17 59.97 38.07 57.84 35.13
  Q 57.53 34.69 57.59 35.23
  Z"
/>
<path fill="#673315" d="
  M 51.47 29.88
  Q 52.07 30.17 52.21 30.73
  Q 52.34 31.23 51.84 31.38
  C 44.46 33.57 39.37 42.20 44.53 49.07
  Q 44.83 49.46 44.62 49.91
  Q 44.40 50.35 43.86 50.63
  C 32.69 43.74 43.02 31.77 51.47 29.88
  Z"
/>
<path fill="#ffffff" d="
  M 57.84 35.13
  C 59.97 38.07 57.70 44.17 55.51 46.60
  A 0.55 0.55 0.0 0 1 54.58 46.42
  L 54.37 45.85
  A 0.33 0.32 -35.6 0 1 54.43 45.52
  Q 58.27 41.06 57.59 35.23
  Q 57.53 34.69 57.84 35.13
  Z"
/>
<path fill="#65a442" d="
  M 82.76 66.35
  L 84.27 66.86
  A 0.63 0.63 0.0 0 1 84.07 68.09
  L 80.74 68.06
  A 0.46 0.46 0.0 0 1 80.30 67.51
  L 80.93 64.57
  A 0.96 0.91 81.7 0 1 81.34 63.99
  Q 82.50 63.28 83.91 63.54
  A 0.66 0.66 0.0 0 1 83.79 64.85
  Q 82.98 64.85 82.50 65.43
  A 0.58 0.58 0.0 0 0 82.76 66.35
  Z"
/>
<path fill="#c3ce61" d="
  M 40.19 84.04
  L 46.11 84.00
  A 1.54 1.53 63.9 0 0 47.05 81.26
  L 43.27 78.28
  A 0.53 0.53 0.0 0 1 43.14 77.58
  L 47.52 70.32
  Q 47.97 69.58 48.66 70.11
  L 49.52 70.77
  Q 50.09 71.21 49.72 71.83
  L 46.76 76.72
  Q 46.48 77.18 46.89 77.53
  C 49.06 79.34 51.54 82.03 49.39 84.84
  C 47.65 87.11 42.98 86.57 40.25 86.46
  Q 36.56 86.30 36.52 82.75
  Q 36.44 76.49 36.55 70.23
  Q 36.56 69.72 37.07 69.73
  L 38.87 69.75
  Q 39.48 69.76 39.48 70.37
  L 39.59 83.45
  Q 39.60 84.04 40.19 84.04
  Z"
/>
<rect fill="#65a442" x="-1.51" y="-8.41" transform="translate(82.25,78.17) rotate(0.1)" width="3.02" height="16.82" rx="0.47"/>
<circle fill="#65a442" cx="73.23" cy="72.64" r="1.50"/>
<path fill="#c3ce61" d="
  M 29.56 83.95
  A 1.49 1.48 76.7 0 0 30.88 81.81
  Q 29.72 79.42 27.56 77.86
  A 0.57 0.57 0.0 0 1 27.51 76.97
  L 28.84 75.80
  Q 29.26 75.43 29.72 75.76
  C 33.28 78.32 37.02 85.01 30.25 86.44
  Q 29.04 86.69 24.79 86.46
  Q 24.25 86.43 24.28 85.88
  L 24.34 84.52
  Q 24.37 83.99 24.90 83.98
  L 29.56 83.95
  Z"
/>
<path fill="#c3ce61" d="
  M 18.71 86.50
  C 12.12 87.49 9.87 79.58 15.32 77.09
  C 20.32 74.81 22.60 78.76 22.73 83.10
  Q 22.97 90.96 14.39 91.51
  Q 13.83 91.54 13.77 90.99
  Q 13.70 90.38 13.77 89.76
  A 0.42 0.41 -7.4 0 1 14.03 89.43
  L 18.97 87.46
  A 0.50 0.50 0.0 0 0 18.71 86.50
  Z
  M 18.05 79.28
  C 15.52 78.11 14.12 82.15 16.29 83.69
  Q 17.66 84.66 18.83 83.84
  Q 19.94 83.05 19.61 81.73
  Q 19.12 79.77 18.05 79.28
  Z"
/>
<path fill="#65a442" d="
  M 58.93 86.48
  Q 55.42 86.68 54.27 85.48
  C 47.00 77.92 64.08 70.93 62.92 83.43
  Q 62.86 84.05 63.49 84.05
  L 67.76 84.01
  A 0.47 0.47 0.0 0 0 68.21 83.42
  C 66.88 78.59 71.85 74.53 75.69 77.01
  C 78.57 78.87 78.23 83.05 77.91 86.11
  Q 77.87 86.52 77.45 86.52
  L 63.47 86.53
  Q 62.92 86.53 62.61 86.99
  Q 59.89 91.07 54.84 91.52
  Q 54.19 91.57 54.12 90.92
  L 54.01 89.85
  A 0.62 0.62 0.0 0 1 54.56 89.17
  Q 57.19 88.85 59.22 87.22
  A 0.42 0.42 0.0 0 0 58.93 86.48
  Z
  M 58.22 83.96
  A 1.72 1.71 -89.7 0 0 59.96 82.23
  Q 59.94 80.59 58.90 79.56
  A 2.01 2.00 -60.7 0 0 55.54 80.51
  Q 54.71 83.90 58.22 83.96
  Z
  M 70.73 82.10
  A 1.42 1.42 0.0 0 0 71.65 83.50
  L 73.15 84.06
  A 1.42 1.42 0.0 0 0 75.05 82.51
  L 74.67 80.17
  A 1.42 1.42 0.0 0 0 72.89 79.02
  L 71.84 79.32
  A 1.42 1.42 0.0 0 0 70.80 80.62
  L 70.73 82.10
  Z"
/>
<path fill="#ffffff" d="
  M 18.05 79.28
  Q 19.12 79.77 19.61 81.73
  Q 19.94 83.05 18.83 83.84
  Q 17.66 84.66 16.29 83.69
  C 14.12 82.15 15.52 78.11 18.05 79.28
  Z"
/>
<path fill="#ffffff" d="
  M 58.22 83.96
  Q 54.71 83.90 55.54 80.51
  A 2.01 2.00 -60.7 0 1 58.90 79.56
  Q 59.94 80.59 59.96 82.23
  A 1.72 1.71 -89.7 0 1 58.22 83.96
  Z"
/>
<path fill="#ffffff" d="
  M 70.73 82.10
  L 70.80 80.62
  A 1.42 1.42 0.0 0 1 71.84 79.32
  L 72.89 79.02
  A 1.42 1.42 0.0 0 1 74.67 80.17
  L 75.05 82.51
  A 1.42 1.42 0.0 0 1 73.15 84.06
  L 71.65 83.50
  A 1.42 1.42 0.0 0 1 70.73 82.10
  Z"
/>
</svg>
